<?plantuml 1.2026.2?><svg xmlns="http://www.w3.org/2000/svg" xmlns:xlink="http://www.w3.org/1999/xlink" contentStyleType="text/css" data-diagram-type="DESCRIPTION" height="1383px" preserveAspectRatio="none" style="width:788px;height:1383px;background:#FFFFFF;" version="1.1" viewBox="0 0 788 1383" width="788px" zoomAndPan="magnify"><title>Vehicle Rental Management System - Use Case Diagram</title><defs/><g><g class="title" data-source-line="1"><text fill="#000000" font-family="sans-serif" font-size="14" font-weight="bold" lengthAdjust="spacing" textLength="443.7412" x="165.1294" y="22.9951">Vehicle Rental Management System - Use Case Diagram</text></g><!--cluster Vehicle Rental Management System--><g class="cluster" data-qualified-name="Vehicle Rental Management System" data-source-line="11" id="ent0005"><rect fill="none" height="1229" rx="2.5" ry="2.5" style="stroke:#181818;stroke-width:1;" width="661" x="121" y="148.9169"/><text fill="#000000" font-family="sans-serif" font-size="14" font-weight="bold" lengthAdjust="spacing" textLength="284.8604" x="309.0698" y="163.912">Vehicle Rental Management System</text></g><!--entity UC_Login--><g class="entity" data-qualified-name="Vehicle Rental Management System.UC_Login" data-source-line="14" id="ent0006"><ellipse cx="228.8804" cy="526.9405" fill="#F1F1F1" rx="29.8804" ry="14.5236" style="stroke:#181818;stroke-width:0.5;"/><text fill="#000000" font-family="sans-serif" font-size="14" lengthAdjust="spacing" textLength="38.0146" x="209.8731" y="531.5889">Login</text></g><!--entity UC_Profile--><g class="entity" data-qualified-name="Vehicle Rental Management System.UC_Profile" data-source-line="15" id="ent0007"><ellipse cx="228.824" cy="654.9817" fill="#F1F1F1" rx="60.824" ry="14.5648" style="stroke:#181818;stroke-width:0.5;"/><text fill="#000000" font-family="sans-serif" font-size="14" lengthAdjust="spacing" textLength="82.0654" x="187.7912" y="659.6301">View Profile</text></g><!--entity UC_Logout--><g class="entity" data-qualified-name="Vehicle Rental Management System.UC_Logout" data-source-line="16" id="ent0008"><ellipse cx="229.0682" cy="993.9405" fill="#F1F1F1" rx="37.0682" ry="14.5236" style="stroke:#181818;stroke-width:0.5;"/><text fill="#000000" font-family="sans-serif" font-size="14" lengthAdjust="spacing" textLength="48.1797" x="204.9783" y="998.5889">Logout</text></g><!--entity UC_ViewAvailable--><g class="entity" data-qualified-name="Vehicle Rental Management System.UC_ViewAvailable" data-source-line="19" id="ent0009"><ellipse cx="671.042" cy="269.8253" fill="#F1F1F1" rx="95.042" ry="21.4084" style="stroke:#181818;stroke-width:0.5;"/><text fill="#000000" font-family="sans-serif" font-size="14" lengthAdjust="spacing" textLength="165.0674" x="588.5083" y="274.4737">View Available Vehicles</text></g><!--entity UC_Search--><g class="entity" data-qualified-name="Vehicle Rental Management System.UC_Search" data-source-line="20" id="ent0010"><ellipse cx="229.0635" cy="396.1296" fill="#F1F1F1" rx="69.0635" ry="16.2127" style="stroke:#181818;stroke-width:0.5;"/><text fill="#000000" font-family="sans-serif" font-size="14" lengthAdjust="spacing" textLength="104.0088" x="177.0591" y="400.778">Search Vehicle</text></g><!--entity UC_Rent--><g class="entity" data-qualified-name="Vehicle Rental Management System.UC_Rent" data-source-line="21" id="ent0011"><ellipse cx="229.0786" cy="461.9326" fill="#F1F1F1" rx="63.0786" ry="15.0157" style="stroke:#181818;stroke-width:0.5;"/><text fill="#000000" font-family="sans-serif" font-size="14" lengthAdjust="spacing" textLength="88.3066" x="184.9253" y="466.581">Rent Vehicle</text></g><!--entity UC_Calculate--><g class="entity" data-qualified-name="Vehicle Rental Management System.UC_Calculate" data-source-line="22" id="ent0012"><ellipse cx="670.9866" cy="496.0142" fill="#F1F1F1" rx="68.4866" ry="16.0973" style="stroke:#181818;stroke-width:0.5;"/><text fill="#000000" font-family="sans-serif" font-size="14" lengthAdjust="spacing" textLength="102.5391" x="619.717" y="500.6626">Calculate Rent</text></g><!--entity UC_Bill--><g class="entity" data-qualified-name="Vehicle Rental Management System.UC_Bill" data-source-line="23" id="ent0013"><ellipse cx="671.1159" cy="430.1401" fill="#F1F1F1" rx="64.1159" ry="15.2232" style="stroke:#181818;stroke-width:0.5;"/><text fill="#000000" font-family="sans-serif" font-size="14" lengthAdjust="spacing" textLength="91.1094" x="625.5612" y="434.7885">Generate Bill</text></g><!--entity UC_Return--><g class="entity" data-qualified-name="Vehicle Rental Management System.UC_Return" data-source-line="24" id="ent0014"><ellipse cx="229.1419" cy="200.0453" fill="#F1F1F1" rx="68.6419" ry="16.1284" style="stroke:#181818;stroke-width:0.5;"/><text fill="#000000" font-family="sans-serif" font-size="14" lengthAdjust="spacing" textLength="102.9355" x="177.6741" y="204.6937">Return Vehicle</text></g><!--entity UC_ViewRental--><g class="entity" data-qualified-name="Vehicle Rental Management System.UC_ViewRental" data-source-line="25" id="ent0015"><ellipse cx="229.2109" cy="266.059" fill="#F1F1F1" rx="61.2109" ry="14.6422" style="stroke:#181818;stroke-width:0.5;"/><text fill="#000000" font-family="sans-serif" font-size="14" lengthAdjust="spacing" textLength="83.1523" x="187.6347" y="270.7075">View Rental</text></g><!--entity UC_ViewBill--><g class="entity" data-qualified-name="Vehicle Rental Management System.UC_ViewBill" data-source-line="26" id="ent0016"><ellipse cx="228.8988" cy="329.9405" fill="#F1F1F1" rx="44.8988" ry="14.5236" style="stroke:#181818;stroke-width:0.5;"/><text fill="#000000" font-family="sans-serif" font-size="14" lengthAdjust="spacing" textLength="59.2539" x="199.2719" y="334.5889">View Bill</text></g><!--entity UC_AddVehicle--><g class="entity" data-qualified-name="Vehicle Rental Management System.UC_AddVehicle" data-source-line="29" id="ent0017"><ellipse cx="229.1401" cy="591.0449" fill="#F1F1F1" rx="61.1401" ry="14.628" style="stroke:#181818;stroke-width:0.5;"/><text fill="#000000" font-family="sans-serif" font-size="14" lengthAdjust="spacing" textLength="82.9541" x="187.6631" y="595.6933">Add Vehicle</text></g><!--entity UC_MyVehicles--><g class="entity" data-qualified-name="Vehicle Rental Management System.UC_MyVehicles" data-source-line="30" id="ent0018"><ellipse cx="229.04" cy="722.0249" fill="#F1F1F1" rx="76.04" ry="17.608" style="stroke:#181818;stroke-width:0.5;"/><text fill="#000000" font-family="sans-serif" font-size="14" lengthAdjust="spacing" textLength="121.2422" x="168.4189" y="726.6733">View My Vehicles</text></g><!--entity UC_UpdateVehicle--><g class="entity" data-qualified-name="Vehicle Rental Management System.UC_UpdateVehicle" data-source-line="31" id="ent0019"><ellipse cx="228.9713" cy="790.8111" fill="#F1F1F1" rx="69.9713" ry="16.3943" style="stroke:#181818;stroke-width:0.5;"/><text fill="#000000" font-family="sans-serif" font-size="14" lengthAdjust="spacing" textLength="106.3057" x="175.8184" y="795.4596">Update Vehicle</text></g><!--entity UC_RemoveVehicle--><g class="entity" data-qualified-name="Vehicle Rental Management System.UC_RemoveVehicle" data-source-line="32" id="ent0020"><ellipse cx="229.1762" cy="926.8521" fill="#F1F1F1" rx="72.6762" ry="16.9352" style="stroke:#181818;stroke-width:0.5;"/><text fill="#000000" font-family="sans-serif" font-size="14" lengthAdjust="spacing" textLength="113.0459" x="172.6532" y="931.5005">Remove Vehicle</text></g><!--entity UC_MyRentals--><g class="entity" data-qualified-name="Vehicle Rental Management System.UC_MyRentals" data-source-line="33" id="ent0021"><ellipse cx="229.0775" cy="1061.0324" fill="#F1F1F1" rx="73.5775" ry="17.1155" style="stroke:#181818;stroke-width:0.5;"/><text fill="#000000" font-family="sans-serif" font-size="14" lengthAdjust="spacing" textLength="115.2607" x="171.4471" y="1065.6808">View My Rentals</text></g><!--entity UC_Earnings--><g class="entity" data-qualified-name="Vehicle Rental Management System.UC_Earnings" data-source-line="34" id="ent0022"><ellipse cx="229.102" cy="858.7373" fill="#F1F1F1" rx="67.102" ry="15.8204" style="stroke:#181818;stroke-width:0.5;"/><text fill="#000000" font-family="sans-serif" font-size="14" lengthAdjust="spacing" textLength="98.9775" x="179.6132" y="863.3857">View Earnings</text></g><!--entity UC_AllUsers--><g class="entity" data-qualified-name="Vehicle Rental Management System.UC_AllUsers" data-source-line="37" id="ent0023"><ellipse cx="229.1073" cy="1345.7383" fill="#F1F1F1" rx="67.1073" ry="15.8215" style="stroke:#181818;stroke-width:0.5;"/><text fill="#000000" font-family="sans-serif" font-size="14" lengthAdjust="spacing" textLength="98.9912" x="179.6117" y="1350.3868">View All Users</text></g><!--entity UC_AllVehicles--><g class="entity" data-qualified-name="Vehicle Rental Management System.UC_AllVehicles" data-source-line="38" id="ent0024"><ellipse cx="228.7967" cy="1130.7762" fill="#F1F1F1" rx="74.7967" ry="17.3593" style="stroke:#181818;stroke-width:0.5;"/><text fill="#000000" font-family="sans-serif" font-size="14" lengthAdjust="spacing" textLength="118.2344" x="169.6795" y="1135.4247">View All Vehicles</text></g><!--entity UC_AllRentals--><g class="entity" data-qualified-name="Vehicle Rental Management System.UC_AllRentals" data-source-line="39" id="ent0025"><ellipse cx="228.8549" cy="1200.7879" fill="#F1F1F1" rx="72.3549" ry="16.871" style="stroke:#181818;stroke-width:0.5;"/><text fill="#000000" font-family="sans-serif" font-size="14" lengthAdjust="spacing" textLength="112.2529" x="172.7285" y="1205.4363">View All Rentals</text></g><!--entity UC_Stats--><g class="entity" data-qualified-name="Vehicle Rental Management System.UC_Stats" data-source-line="40" id="ent0026"><ellipse cx="229.1694" cy="1273.7507" fill="#F1F1F1" rx="92.1694" ry="20.8339" style="stroke:#181818;stroke-width:0.5;"/><text fill="#000000" font-family="sans-serif" font-size="14" lengthAdjust="spacing" textLength="158.6348" x="149.852" y="1278.3992">View System Statistics</text></g><!--entity Customer--><g class="entity" data-qualified-name="Customer" data-source-line="7" id="ent0002"><ellipse cx="40.002" cy="373.9169" fill="#F1F1F1" rx="16" ry="16" style="stroke:#181818;stroke-width:0.5;"/><path d="M40.002,393.9169 C44.002,393.9169 47.002,393.9169 51.002,389.9169 C59.002,389.9169 67.002,397.9169 67.002,405.9169 L67.002,409.9169 C67.002,413.9169 63.002,417.9169 59.002,417.9169 L21.002,417.9169 C17.002,417.9169 13.002,413.9169 13.002,409.9169 L13.002,405.9169 C13.002,397.9169 21.002,389.9169 29.002,389.9169 C33.002,393.9169 36.002,393.9169 40.002,393.9169" fill="#F1F1F1" style="stroke:#181818;stroke-width:0.5;"/><text fill="#000000" font-family="sans-serif" font-size="14" lengthAdjust="spacing" textLength="68.0039" x="6" y="431.412">Customer</text></g><!--entity Renter--><g class="entity" data-qualified-name="Renter" data-source-line="8" id="ent0003"><ellipse cx="40" cy="768.9169" fill="#F1F1F1" rx="16" ry="16" style="stroke:#181818;stroke-width:0.5;"/><path d="M40,788.9169 C44,788.9169 47,788.9169 51,784.9169 C59,784.9169 67,792.9169 67,800.9169 L67,804.9169 C67,808.9169 63,812.9169 59,812.9169 L21,812.9169 C17,812.9169 13,808.9169 13,804.9169 L13,800.9169 C13,792.9169 21,784.9169 29,784.9169 C33,788.9169 36,788.9169 40,788.9169" fill="#F1F1F1" style="stroke:#181818;stroke-width:0.5;"/><text fill="#000000" font-family="sans-serif" font-size="14" lengthAdjust="spacing" textLength="47.0723" x="16.4639" y="826.412">Renter</text></g><!--entity Admin--><g class="entity" data-qualified-name="Admin" data-source-line="9" id="ent0004"><ellipse cx="40" cy="1108.9169" fill="#F1F1F1" rx="16" ry="16" style="stroke:#181818;stroke-width:0.5;"/><path d="M40,1128.9169 C44,1128.9169 47,1128.9169 51,1124.9169 C59,1124.9169 67,1132.9169 67,1140.9169 L67,1144.9169 C67,1148.9169 63,1152.9169 59,1152.9169 L21,1152.9169 C17,1152.9169 13,1148.9169 13,1144.9169 L13,1140.9169 C13,1132.9169 21,1124.9169 29,1124.9169 C33,1128.9169 36,1128.9169 40,1128.9169" fill="#F1F1F1" style="stroke:#181818;stroke-width:0.5;"/><text fill="#000000" font-family="sans-serif" font-size="14" lengthAdjust="spacing" textLength="44.8643" x="17.5679" y="1166.412">Admin</text></g><!--link Customer to UC_Login--><g class="link" data-entity-1="ent0002" data-entity-2="ent0006" data-link-type="dependency" data-source-line="46" id="lnk27"><path d="M61.25,434.7869 C73.67,455.1169 91.34,478.8369 113,493.9169 C138.91,511.9569 168.6572,519.3117 193.3772,523.0417" fill="none" id="Customer-to-UC_Login" style="stroke:#181818;stroke-width:1;"/><polygon fill="#181818" points="199.31,523.9369,191.0075,518.6388,194.366,523.1909,189.8139,526.5493,199.31,523.9369" style="stroke:#181818;stroke-width:1;"/></g><!--link Customer to UC_Profile--><g class="link" data-entity-1="ent0002" data-entity-2="ent0007" data-link-type="dependency" data-source-line="47" id="lnk28"><path d="M62.18,434.6869 C76.74,463.2069 95.16,503.3869 105,540.9169 C109.64,558.6269 101.23,608.8969 113,622.9169 C126.86,639.4269 142.5455,646.6251 163.2855,650.7551" fill="none" id="Customer-to-UC_Profile" style="stroke:#181818;stroke-width:1;"/><polygon fill="#181818" points="169.17,651.9269,161.1245,646.2462,164.2663,650.9504,159.5621,654.0922,169.17,651.9269" style="stroke:#181818;stroke-width:1;"/></g><!--link Customer to UC_ViewAvailable--><g class="link" data-entity-1="ent0002" data-entity-2="ent0009" data-link-type="dependency" data-source-line="48" id="lnk29"><path d="M40.26,357.1569 C41.62,303.9869 52.98,210.0169 113,165.9169 C279.87,43.2969 543.8443,189.4473 634.2043,246.4073" fill="none" id="Customer-to-UC_ViewAvailable" style="stroke:#181818;stroke-width:1;"/><polygon fill="#181818" points="639.28,249.6069,633.7995,241.4237,635.0502,246.9406,629.5334,248.1913,639.28,249.6069" style="stroke:#181818;stroke-width:1;"/></g><!--link Customer to UC_Search--><g class="link" data-entity-1="ent0002" data-entity-2="ent0010" data-link-type="dependency" data-source-line="49" id="lnk30"><path d="M74,395.9169 C97.7,395.9169 124.48,395.9169 153.71,395.9169" fill="none" id="Customer-to-UC_Search" style="stroke:#181818;stroke-width:1;"/><polygon fill="#181818" points="159.71,395.9169,150.71,391.9169,154.71,395.9169,150.71,399.9169,159.71,395.9169" style="stroke:#181818;stroke-width:1;"/></g><!--link Customer to UC_Rent--><g class="link" data-entity-1="ent0002" data-entity-2="ent0011" data-link-type="dependency" data-source-line="50" id="lnk31"><path d="M74.26,412.4269 C86.3,418.0669 100.11,424.1469 113,428.9169 C136.37,437.5669 157.3035,443.8174 179.1135,449.6474" fill="none" id="Customer-to-UC_Rent" style="stroke:#181818;stroke-width:1;"/><polygon fill="#181818" points="184.91,451.1969,177.2482,445.0084,180.0796,449.9057,175.1823,452.737,184.91,451.1969" style="stroke:#181818;stroke-width:1;"/></g><!--link Customer to UC_Return--><g class="link" data-entity-1="ent0002" data-entity-2="ent0014" data-link-type="dependency" data-source-line="51" id="lnk32"><path d="M48.42,357.3169 C57.46,320.5169 76.33,266.0869 113,233.9169 C128.34,220.4669 142.9743,213.8025 162.3643,208.8825" fill="none" id="Customer-to-UC_Return" style="stroke:#181818;stroke-width:1;"/><polygon fill="#181818" points="168.18,207.4069,158.4727,205.7432,163.3336,208.6366,160.4402,213.4975,168.18,207.4069" style="stroke:#181818;stroke-width:1;"/></g><!--link Customer to UC_ViewRental--><g class="link" data-entity-1="ent0002" data-entity-2="ent0015" data-link-type="dependency" data-source-line="52" id="lnk33"><path d="M61.21,356.9769 C73.61,336.6269 91.28,312.9069 113,297.9169 C131.33,285.2569 148.6945,278.8956 169.4545,274.2556" fill="none" id="Customer-to-UC_ViewRental" style="stroke:#181818;stroke-width:1;"/><polygon fill="#181818" points="175.31,272.9469,165.6542,271.0063,170.4304,274.0375,167.3992,278.8137,175.31,272.9469" style="stroke:#181818;stroke-width:1;"/></g><!--link Customer to UC_ViewBill--><g class="link" data-entity-1="ent0002" data-entity-2="ent0016" data-link-type="dependency" data-source-line="53" id="lnk34"><path d="M74.19,378.7969 C86.22,372.9769 100.04,366.7369 113,361.9169 C138.93,352.2669 163.2684,345.4291 186.1984,339.7091" fill="none" id="Customer-to-UC_ViewBill" style="stroke:#181818;stroke-width:1;"/><polygon fill="#181818" points="192.02,338.2569,182.3194,336.5541,187.1687,339.4671,184.2557,344.3163,192.02,338.2569" style="stroke:#181818;stroke-width:1;"/></g><!--link Customer to UC_Logout--><g class="link" data-entity-1="ent0002" data-entity-2="ent0008" data-link-type="dependency" data-source-line="54" id="lnk35"><path d="M45.78,434.5569 C61.52,561.5969 110.84,958.3969 113,960.9169 C132.34,983.4569 159.9847,990.5726 185.8947,992.9326" fill="none" id="Customer-to-UC_Logout" style="stroke:#181818;stroke-width:1;"/><polygon fill="#181818" points="191.87,993.4769,183.2699,988.677,186.8906,993.0233,182.5443,996.644,191.87,993.4769" style="stroke:#181818;stroke-width:1;"/></g><!--link Renter to UC_Login--><g class="link" data-entity-1="ent0003" data-entity-2="ent0006" data-link-type="dependency" data-source-line="59" id="lnk36"><path d="M42.1,752.2569 C45.69,700.8869 59.75,610.6169 113,558.9169 C135.97,536.6169 167.1194,530.0585 192.9494,527.9785" fill="none" id="Renter-to-UC_Login" style="stroke:#181818;stroke-width:1;"/><polygon fill="#181818" points="198.93,527.4969,189.638,524.2322,193.9461,527.8982,190.2801,532.2064,198.93,527.4969" style="stroke:#181818;stroke-width:1;"/></g><!--link Renter to UC_Profile--><g class="link" data-entity-1="ent0003" data-entity-2="ent0007" data-link-type="dependency" data-source-line="60" id="lnk37"><path d="M59.25,752.1669 C71.53,730.0269 89.74,703.4669 113,686.9169 C131.07,674.0669 148.2632,667.67 168.9832,663.06" fill="none" id="Renter-to-UC_Profile" style="stroke:#181818;stroke-width:1;"/><polygon fill="#181818" points="174.84,661.7569,165.1861,659.807,169.9593,662.8428,166.9235,667.616,174.84,661.7569" style="stroke:#181818;stroke-width:1;"/></g><!--link Renter to UC_AddVehicle--><g class="link" data-entity-1="ent0003" data-entity-2="ent0017" data-link-type="dependency" data-source-line="61" id="lnk38"><path d="M47.58,752.2169 C56.1,713.9669 74.66,656.4469 113,622.9169 C129.3,608.6569 145.5941,601.9682 166.1041,597.5582" fill="none" id="Renter-to-UC_AddVehicle" style="stroke:#181818;stroke-width:1;"/><polygon fill="#181818" points="171.97,596.2969,162.3302,594.2782,167.0817,597.3479,164.0119,602.0994,171.97,596.2969" style="stroke:#181818;stroke-width:1;"/></g><!--link Renter to UC_MyVehicles--><g class="link" data-entity-1="ent0003" data-entity-2="ent0018" data-link-type="dependency" data-source-line="62" id="lnk39"><path d="M67.6,777.2169 C81.02,770.6069 97.65,762.8369 113,756.9169 C134.22,748.7269 152.4587,742.8426 173.0187,736.8626" fill="none" id="Renter-to-UC_MyVehicles" style="stroke:#181818;stroke-width:1;"/><polygon fill="#181818" points="178.78,735.1869,169.021,733.8596,173.979,736.5833,171.2552,741.5413,178.78,735.1869" style="stroke:#181818;stroke-width:1;"/></g><!--link Renter to UC_UpdateVehicle--><g class="link" data-entity-1="ent0003" data-entity-2="ent0019" data-link-type="dependency" data-source-line="63" id="lnk40"><path d="M67.79,790.9169 C91.53,790.9169 121.22,790.9169 152.9,790.9169" fill="none" id="Renter-to-UC_UpdateVehicle" style="stroke:#181818;stroke-width:1;"/><polygon fill="#181818" points="158.9,790.9169,149.9,786.9169,153.9,790.9169,149.9,794.9169,158.9,790.9169" style="stroke:#181818;stroke-width:1;"/></g><!--link Renter to UC_RemoveVehicle--><g class="link" data-entity-1="ent0003" data-entity-2="ent0020" data-link-type="dependency" data-source-line="64" id="lnk41"><path d="M60.51,829.8469 C72.9,850.9669 90.8,875.9469 113,891.9169 C129.6,903.8569 144.56,910.2133 163.84,915.4533" fill="none" id="Renter-to-UC_RemoveVehicle" style="stroke:#181818;stroke-width:1;"/><polygon fill="#181818" points="169.63,917.0269,161.9941,910.8065,164.805,915.7155,159.896,918.5264,169.63,917.0269" style="stroke:#181818;stroke-width:1;"/></g><!--link Renter to UC_MyRentals--><g class="link" data-entity-1="ent0003" data-entity-2="ent0021" data-link-type="dependency" data-source-line="65" id="lnk42"><path d="M42.1,829.4369 C45.67,881.1669 59.7,972.7069 113,1025.9169 C126.66,1039.5569 139.6871,1046.3075 158.1271,1051.4075" fill="none" id="Renter-to-UC_MyRentals" style="stroke:#181818;stroke-width:1;"/><polygon fill="#181818" points="163.91,1053.0069,156.3019,1046.7525,159.0909,1051.674,154.1694,1054.4631,163.91,1053.0069" style="stroke:#181818;stroke-width:1;"/></g><!--link Renter to UC_Earnings--><g class="link" data-entity-1="ent0003" data-entity-2="ent0022" data-link-type="dependency" data-source-line="66" id="lnk43"><path d="M67.58,804.6669 C80.99,811.2969 97.63,819.0569 113,824.9169 C135.57,833.5269 155.5095,839.6989 176.8995,845.6489" fill="none" id="Renter-to-UC_Earnings" style="stroke:#181818;stroke-width:1;"/><polygon fill="#181818" points="182.68,847.2569,175.0812,840.9913,177.8629,845.9169,172.9372,848.6986,182.68,847.2569" style="stroke:#181818;stroke-width:1;"/></g><!--link Renter to UC_Logout--><g class="link" data-entity-1="ent0003" data-entity-2="ent0008" data-link-type="dependency" data-source-line="67" id="lnk44"><path d="M59.38,829.5269 C72.83,858.4769 91.09,899.2569 105,935.9169 C109.14,946.8269 104.63,952.7969 113,960.9169 C134.09,981.3869 161.0417,988.6005 186.2617,991.5905" fill="none" id="Renter-to-UC_Logout" style="stroke:#181818;stroke-width:1;"/><polygon fill="#181818" points="192.22,992.2969,183.7535,987.2651,187.2548,991.7082,182.8117,995.2095,192.22,992.2969" style="stroke:#181818;stroke-width:1;"/></g><!--link Admin to UC_Login--><g class="link" data-entity-1="ent0004" data-entity-2="ent0006" data-link-type="dependency" data-source-line="72" id="lnk45"><path d="M45.61,1091.9969 C60.81,963.9969 108.6,564.0069 113,558.9169 C134.2,534.3669 166.4676,528.1795 192.9976,526.8395" fill="none" id="Admin-to-UC_Login" style="stroke:#181818;stroke-width:1;"/><polygon fill="#181818" points="198.99,526.5369,189.7997,522.996,193.9964,526.7891,190.2032,530.9858,198.99,526.5369" style="stroke:#181818;stroke-width:1;"/></g><!--link Admin to UC_Profile--><g class="link" data-entity-1="ent0004" data-entity-2="ent0007" data-link-type="dependency" data-source-line="73" id="lnk46"><path d="M67.56,1095.4869 C81.56,1074.6469 97.37,1047.1169 105,1019.9169 C110,1002.0969 101.63,701.5169 113,686.9169 C126.31,669.8269 142.0189,662.5051 162.9289,658.4651" fill="none" id="Admin-to-UC_Profile" style="stroke:#181818;stroke-width:1;"/><polygon fill="#181818" points="168.82,657.3269,159.2246,655.1068,163.9108,658.2754,160.7422,662.9615,168.82,657.3269" style="stroke:#181818;stroke-width:1;"/></g><!--link Admin to UC_AllUsers--><g class="link" data-entity-1="ent0004" data-entity-2="ent0023" data-link-type="dependency" data-source-line="74" id="lnk47"><path d="M46.34,1169.7569 C54.01,1210.7569 72.04,1274.5269 113,1311.9169 C128.22,1325.8169 143.0471,1332.6001 162.6471,1337.4701" fill="none" id="Admin-to-UC_AllUsers" style="stroke:#181818;stroke-width:1;"/><polygon fill="#181818" points="168.47,1338.9169,160.7001,1332.8647,163.6175,1337.7112,158.771,1340.6286,168.47,1338.9169" style="stroke:#181818;stroke-width:1;"/></g><!--link Admin to UC_AllVehicles--><g class="link" data-entity-1="ent0004" data-entity-2="ent0024" data-link-type="dependency" data-source-line="75" id="lnk48"><path d="M67.79,1130.9169 C90.21,1130.9169 117.31,1130.9169 147.61,1130.9169" fill="none" id="Admin-to-UC_AllVehicles" style="stroke:#181818;stroke-width:1;"/><polygon fill="#181818" points="153.61,1130.9169,144.61,1126.9169,148.61,1130.9169,144.61,1134.9169,153.61,1130.9169" style="stroke:#181818;stroke-width:1;"/></g><!--link Admin to UC_AllRentals--><g class="link" data-entity-1="ent0004" data-entity-2="ent0025" data-link-type="dependency" data-source-line="76" id="lnk49"><path d="M67.56,1145.0669 C80.96,1151.8869 97.6,1159.8769 113,1165.9169 C134.76,1174.4569 153.7243,1180.5666 174.6643,1186.5966" fill="none" id="Admin-to-UC_AllRentals" style="stroke:#181818;stroke-width:1;"/><polygon fill="#181818" points="180.43,1188.2569,172.8883,1181.9226,175.6252,1186.8733,170.6746,1189.6102,180.43,1188.2569" style="stroke:#181818;stroke-width:1;"/></g><!--link Admin to UC_Stats--><g class="link" data-entity-1="ent0004" data-entity-2="ent0026" data-link-type="dependency" data-source-line="77" id="lnk50"><path d="M59.73,1169.4569 C72.14,1191.3869 90.29,1217.7969 113,1234.9169 C127.39,1245.7669 139.317,1251.8026 156.387,1257.5826" fill="none" id="Admin-to-UC_Stats" style="stroke:#181818;stroke-width:1;"/><polygon fill="#181818" points="162.07,1259.5069,154.8283,1252.8317,157.3341,1257.9033,152.2626,1260.4091,162.07,1259.5069" style="stroke:#181818;stroke-width:1;"/></g><!--link Admin to UC_Logout--><g class="link" data-entity-1="ent0004" data-entity-2="ent0008" data-link-type="dependency" data-source-line="78" id="lnk51"><path d="M67.52,1110.8569 C80.79,1099.4169 95.92,1083.9769 105,1066.9169 C113.72,1050.5269 100.4,1039.5469 113,1025.9169 C132.97,1004.3069 160.1957,997.3821 185.8057,995.0021" fill="none" id="Admin-to-UC_Logout" style="stroke:#181818;stroke-width:1;"/><polygon fill="#181818" points="191.78,994.4469,182.4485,991.2968,186.8015,994.9095,183.1887,999.2625,191.78,994.4469" style="stroke:#181818;stroke-width:1;"/></g><!--link UC_Rent to UC_Calculate--><g class="link" data-entity-1="ent0011" data-entity-2="ent0012" data-link-type="dependency" data-source-line="83" id="lnk52"><path d="M282.91,469.7869 C304.05,472.7069 328.64,475.8069 351,477.9169 C437.84,486.0969 532.3648,490.7775 596.9948,493.3575" fill="none" id="UC_Rent-to-UC_Calculate" style="stroke:#181818;stroke-width:1;stroke-dasharray:7,7;"/><polygon fill="#181818" points="602.99,493.5969,594.1567,489.2411,597.994,493.3974,593.8376,497.2347,602.99,493.5969" style="stroke:#181818;stroke-width:1;"/><text fill="#000000" font-family="sans-serif" font-size="13" lengthAdjust="spacing" textLength="63.0068" x="417" y="473.9838">&#171;include&#187;</text></g><!--link UC_Rent to UC_Bill--><g class="link" data-entity-1="ent0011" data-entity-2="ent0013" data-link-type="dependency" data-source-line="84" id="lnk53"><path d="M289.34,457.5969 C373.08,451.5069 519.1258,440.8923 603.5058,434.7523" fill="none" id="UC_Rent-to-UC_Bill" style="stroke:#181818;stroke-width:1;stroke-dasharray:7,7;"/><polygon fill="#181818" points="609.49,434.3169,600.2234,430.9806,604.5032,434.6797,600.804,438.9595,609.49,434.3169" style="stroke:#181818;stroke-width:1;"/><text fill="#000000" font-family="sans-serif" font-size="13" lengthAdjust="spacing" textLength="63.0068" x="417" y="435.9838">&#171;include&#187;</text></g><!--link UC_Search to UC_ViewAvailable--><g class="link" data-entity-1="ent0010" data-entity-2="ent0009" data-link-type="dependency" data-source-line="89" id="lnk54"><path d="M273.39,383.4869 C352.85,360.7369 516.0119,314.0189 605.6019,288.3589" fill="none" id="UC_Search-to-UC_ViewAvailable" style="stroke:#181818;stroke-width:1;stroke-dasharray:7,7;"/><polygon fill="#181818" points="611.37,286.7069,601.6165,285.3396,606.5633,288.0836,603.8193,293.0304,611.37,286.7069" style="stroke:#181818;stroke-width:1;"/><text fill="#000000" font-family="sans-serif" font-size="13" lengthAdjust="spacing" textLength="61.1851" x="417.9648" y="288.9838">&#171;extend&#187;</text><text fill="#000000" font-family="sans-serif" font-size="13" lengthAdjust="spacing" textLength="193.1147" x="352" y="304.1166">[customer chooses to search]</text></g><?plantuml-src ZLPTQzim57tNhxZafK_f3nYT8Kl363HbD4iPR6Eejkg8obAmv7PXxBzFtv5aDqaUcjvpZ-x7gOvTHHKZy4XsjDRV3uGhp62DEMv9fmFO7AGY7SnXAmaiiVvnIt7RumuXHfuLA04zRNSA6jgJMb71aNoXV8yr1VQuVj65DkgWQviqvYqZ2G7NIlGkZT-851r1o6Am7AJIOUz3CrWC5ar7EKAn8CpEpJ-3lmW1NC5IT9qU4M2Gf3RRpEv4I_aCi8JjyhSDqkmZ9M_mjHVFb950yc5HH0mggQ8Ztp3iKHPTl6BAyDDHV1cEctJCfkSs1FVrBl03tQ4fpwXGiWoMSfQOrGF3ocaMM15DgPy99xrXVgAC1QRvFU-fXfwFknfqjBlxCwNxEcH4J3iQm7QrkleBaHnOD4tPNaCU6LLU7qQwhmy1ITdRVMDsBoexTABu0-d4AndhOD0JixZzar4yCEAkSCyfRoCpn4uLvupHLMFCsBUFXpHWuqbcAOl6fdI9_69q3Rqtkt-MR1HML2fQnpC6aUWVGbVmyRqFEde95bAAccBpj94dpyGJytbrz7U91aENU6x4CkjzLyBMQ6FG-c2gWR_vKobxsoTMi0-Nqr8vUrmkbETdCkLO42b74uVbYSHCUI9tJfxBRL8M3DSgnwC1HYjS89Fro-KgENecKWO5ZJ8mcgr4eq1b8YoQuSuZvGGNxFZbVdctlLtfAy7SYZkwFxsclyLmVLrbBmNu03StbDTiQ4XLbJHpMml6cSbMtx-jxc-pmSxDvL-1lcLcKDkR_564DrNra_-eWt7gdH2IIFElYhJ7V_q7?></g></svg>